PathFileType   4   (X/Y/Z)
DataRate	CameraRate	NumFrames	NumMarkers	Units	OrigDataRate	OrigDataStartFrame	OrigNumFrames
120.0	120.0	4	37	mm	120.0	120	136
Frame#	Time	midhip	hip_r	hip_l	knee_r	knee_l	ankle_r	ankle_l	midasis	asis_r	asis_l	psis_r	psis_l	epicondLat_r	epicondLat_l	epicondMed_r	epicondMed_l	malleolusLat_r	malleolusLat_l	malleolusMedv_r	malleolusMedv_l	neck	subclavicle_r	subclavicle_l	sternalnotch	xyphoidprocess	thighwand_r	thighwand_l	upperleg1_r	upperleg1_l	upperleg2_r	upperleg2_l	shankwand_r	shankwand_l	lowerleg1_r	lowerleg1_l	toe_r	toe_l
 	 	X1	Y1	Z1	X2	Y2	Z2	X3	Y3	Z3	X4	Y4	Z4	X5	Y5	Z5	X6	Y6	Z6	X7	Y7	Z7	X8	Y8	Z8	X9	Y9	Z9	X10	Y10	Z10	X11	Y11	Z11	X12	Y12	Z12	X13	Y13	Z13	X14	Y14	Z14	X15	Y15	Z15	X16	Y16	Z16	X17	Y17	Z17	X18	Y18	Z18	X19	Y19	Z19	X20	Y20	Z20	X21	Y21	Z21	X22	Y22	Z22	X23	Y23	Z23	X24	Y24	Z24	X25	Y25	Z25	X26	Y26	Z26	X27	Y27	Z27	X28	Y28	Z28	X29	Y29	Z29	X30	Y30	Z30	X31	Y31	Z31	X32	Y32	Z32	X33	Y33	Z33	X34	Y34	Z34	X35	Y35	Z35	X36	Y36	Z36	X37	Y37	Z37

	120	1.22500	2143.436	764.198	-234.448	2117.615	769.471	-157.055	2130.255	767.809	-312.161	2079.761	411.406	-191.284	2303.705	421.791	-310.863	1984.909	64.504	-212.681	2391.352	69.944	-308.322	2251.595	840.356	-224.973	2241.546	841.677	-101.661	2261.644	839.034	-348.286	2008.309	914.057	-215.840	2009.896	909.531	-269.375	2074.259	405.199	-120.267	2312.972	426.170	-381.625	2079.695	425.651	-266.939	2291.389	398.413	-223.656	1980.182	63.441	-174.487	2374.499	65.490	-343.767	1987.513	75.948	-248.925	2392.282	86.214	-268.406	2059.792	1340.443	-233.286	2181.642	1264.750	-200.083	2180.353	1268.331	-282.577	2163.755	1263.007	-253.424	2210.285	1185.788	-256.271	2244.323	537.389	-85.667	2379.066	657.282	-290.395	2212.457	566.149	-110.085	2331.874	648.684	-305.278	2179.238	499.812	-127.179	2348.454	577.233	-303.181	2104.830	179.805	-187.822	2341.919	168.796	-411.048	2060.650	197.774	-192.605	2346.386	182.240	-364.920	2092.708	43.348	-205.195	2489.059	84.188	-329.691
	121	1.23333	2149.696	763.287	-234.821	2123.569	768.680	-157.538	2136.837	766.906	-312.590	2084.179	410.915	-191.249	2308.892	420.754	-309.889	1985.272	65.027	-212.453	2406.030	70.798	-309.067	2257.917	839.347	-224.954	2247.350	840.760	-101.460	2268.484	837.935	-348.448	2014.516	913.449	-216.816	2016.447	908.802	-270.455	2078.279	404.874	-120.249	2318.478	424.967	-380.618	2083.913	425.644	-266.587	2296.849	396.456	-222.758	1980.606	64.019	-174.250	2389.223	66.049	-344.495	1987.975	76.111	-248.708	2406.374	87.086	-269.084	2065.971	1339.757	-233.952	2187.690	1263.894	-200.407	2186.838	1267.156	-282.933	2170.269	1262.102	-253.836	2216.486	1184.665	-256.144	2248.896	536.507	-84.960	2384.909	655.234	-289.591	2217.373	565.596	-109.658	2337.163	646.416	-304.979	2183.492	499.281	-126.707	2353.868	575.315	-302.538	2106.400	179.083	-187.862	2353.669	168.984	-411.336	2062.112	197.285	-192.700	2357.720	182.437	-365.127	2092.863	43.311	-205.141	2503.785	86.476	-330.425
	122	1.24167	2156.038	762.392	-235.143	2129.606	767.936	-157.973	2143.491	765.990	-312.970	2088.677	410.459	-191.184	2314.071	419.685	-309.061	1985.676	65.624	-212.165	2419.779	71.647	-309.790	2264.321	838.349	-224.921	2253.242	839.902	-101.243	2275.401	836.796	-348.600	2020.680	912.910	-217.774	2023.101	908.088	-271.547	2082.400	404.584	-120.202	2323.933	423.745	-379.761	2088.095	424.400	-265.851	2300.286	395.086	-221.536	1981.066	64.676	-173.953	2403.018	66.631	-345.205	1988.538	76.366	-248.441	2419.909	87.856	-269.769	2072.601	1338.829	-234.871	2194.115	1262.881	-200.498	2193.750	1266.725	-283.460	2176.807	1261.244	-254.241	2223.325	1184.072	-256.827	2253.541	535.662	-84.280	2390.836	653.179	-288.908	2221.917	564.580	-109.198	2342.861	644.346	-304.541	2187.718	498.012	-126.158	2358.974	573.261	-301.775	2108.000	178.402	-187.839	2364.758	169.174	-411.689	2063.579	197.043	-192.803	2368.640	182.728	-365.134	2093.020	43.270	-205.072	2517.608	88.603	-331.175
	123	1.25000	2162.458	761.532	-235.418	2135.733	767.258	-158.360	2150.217	765.079	-313.299	2093.235	410.041	-191.090	2319.247	418.596	-308.381	1986.118	66.294	-211.816	2432.585	72.441	-310.482	2270.813	837.379	-224.881	2259.235	839.121	-101.034	2282.390	835.637	-348.728	2026.846	912.440	-218.723	2029.865	907.409	-272.647	2086.602	404.328	-120.128	2329.349	422.520	-379.055	2093.556	423.373	-265.559	2301.847	394.643	-219.970	1981.562	65.410	-173.597	2415.875	67.185	-345.885	1989.204	76.761	-248.113	2433.002	88.729	-270.552	2079.217	1337.955	-235.939	2200.772	1261.957	-200.638	2200.573	1266.434	-284.005	2183.366	1260.434	-254.704	2230.257	1183.634	-257.701	2258.251	534.847	-83.627	2396.866	651.136	-288.332	2226.960	563.825	-108.610	2348.997	642.608	-304.243	2192.634	497.031	-125.636	2363.939	571.384	-300.908	2109.641	177.769	-187.757	2375.186	169.333	-412.096	2065.334	196.911	-192.833	2379.262	182.890	-365.368	2093.176	43.225	-204.987	2530.504	90.511	-331.917
